<?xml version="1.0" encoding="utf-8"?>
<!-- Generator: Adobe Illustrator 20.1.0, SVG Export Plug-In . SVG Version: 6.00 Build 0)  -->
<svg version="1.1" id="Layer_1" xmlns="http://www.w3.org/2000/svg" xmlns:xlink="http://www.w3.org/1999/xlink" x="0px" y="0px"
	 viewBox="0 0 1000 1000" style="enable-background:new 0 0 1000 1000;" xml:space="preserve">
<style type="text/css">
	.st0{fill:#FFD6BF;}
	.st1{fill:#F44336;}
	.st2{display:none;}
	.st3{display:inline;}
</style>
<g id="Face">
	<g>
		<path class="st0" d="M783.4,573c-7.4-17.9-26.5-26-44.5-18c1.9-8.5,3-13.5,3-13.5l18-77l-97-137l-370,5l-54,161l16,42
			c0,0,0.3,1.8,0.9,4.9l-8.9,2.1c-21.5-1.3-38.4,21.5-37,49c1.2,23.2,5.4,49.1,38,85c19,20.9,37.1,26.1,47.6,27.1
			c4.1,10.8,8.2,19.8,12.4,25.9c26.7,39.3,138,134.7,186,136c55,1.5,170.5-91,193-130c3-5.2,6.2-12.6,9.5-21.7
			c11.5-0.9,33.1-7,59-34.8C793.2,638.2,789.9,588.7,783.4,573z"/>
		<path d="M792.9,409.5c-2-61-15.6-126.7-95-194c-82.5-70-210.5-57.5-242-81c0,0,7.8,8,15.9,18.3c-15-1.1-34.6-1.1-48.8-0.8
			c-26.3-10.5-55.2-10.5-55.2-10.5c10.6,4,19.9,14.2,27.6,26.1c-23.4-2.4-57.6,0.9-57.6,0.9c8.3,1.6,16.1,6.7,23.1,13.2
			c-28.6,11.5-69.5,25.8-111.1,23.8c6.7,9.5,21.3,13.6,38.6,14.8c-31.6,13.6-58.6,32.2-58.6,32.2c10-2.4,21.1-3.1,31.9-2.8
			c-13.1,14.3-43.7,52.5-51.9,107.8c-12,80.5,15.3,178.6,56.4,220.4c-5.9-19-7.1-45.5-8.3-69.3c15.6-26.9,49.5-83.9,59-90
			c3.5,12.5-14,41-14,41c33.9-19.2,61.9-67.2,74.2-91c-7.6,26.8-20,59.1-39.2,78c0,0,39.2-16.3,77.7-77.7
			c-3.7,23-11.3,49.7-26.7,70.7c0,0,33.6-21.9,52.3-62.8c-4.5,24.8-9.1,57.6-5.3,74.8c0,0,15.3-47.4,37.5-92.8
			c15.1,74.8,39.5,96.8,39.5,96.8l-0.7-78.7c25.8,66.3,65.7,91.7,65.7,91.7c-15.7-34.3-17-79.2-16-107c20,51.3,58,88,58,88
			s-17.5-37.8-29.1-76.4c37,60.7,83.1,88.4,83.1,88.4S658.8,428.8,652,397c18.4,30.7,44.9,61.6,44.9,61.6s-9.3-32.1-15.4-59.9
			c19,45.6,50,88.3,62.2,104.3c-6.8,42.9-16.8,91.6-16.8,91.6C773.9,538,794.9,470.5,792.9,409.5z"/>
		<path d="M517.9,457.5c0,0,14.5,19.5,19.5,20s37.5-21.8,85.5-24c27-1.3,51,7.5,51,7.5s-18.3-14.8-52.5-14.5
			c-43,0.3-83.8,22.5-88,22C529.1,468,517.9,457.5,517.9,457.5z"/>
		<path d="M485.9,458.5c0,0-10,19-14,20s-21-20.5-75-23s-82,13-82,13s30.5-23,81-22s75.8,22.8,79,22S485.9,458.5,485.9,458.5z"/>
	</g>
</g>
<g id="Name">
	<g>
		<path class="st1" d="M464.8,651.1c-6.8,9.8-13.7,20.6-19.9,28.1h40.2v18.1H334.7v-18.1h34.7c-2.7-8-8.5-19.9-14.8-28.6l16.2-6.9
			h-27.2v-18.1h54V608H365v-8.7c-8.4,6-17.4,11.7-26.5,16.5c-2.7-5-8.5-12.6-13.2-17.1c30.2-14.8,58.6-41.4,71.8-62.7H419
			c19.2,26.8,47.8,49.2,75.9,60.6c-5.3,5.3-10.1,12.4-14,19c-8.9-4.6-18.1-10.5-27-16.9v9.2H420v17.6h54.7v18.1H420v35.5h19.4
			l-11.6-4.8c5.9-8.4,13-21.3,16.9-30.7L464.8,651.1z M371.9,643.6c6.8,9.1,13.7,21.1,16.4,29.3l-14.6,6.2h24v-35.5H371.9z
			 M441.7,589.4c-13.2-10.7-24.9-22.2-32.7-32.9c-7.6,10.7-18.7,22.2-31.5,32.9H441.7z"/>
		<path class="st1" d="M661.7,548.2v152.3h-22v-10.8h-105v10.8h-21.1V548.2H661.7z M534.7,568.6v39.1h40.9v-39.1H534.7z
			 M534.7,668.3h40.9v-39.5h-40.9V668.3z M639.7,568.6H597v39.1h42.7V568.6z M639.7,668.3v-39.5H597v39.5H639.7z"/>
	</g>
</g>
<g id="Border" class="st2">
	<g class="st3">
		<path d="M500,0c276.1,0,500,223.9,500,500V0H500z"/>
		<path d="M500,0H0v500C0,223.9,223.9,0,500,0z"/>
		<path d="M0,500v500h500C223.9,1000,0,776.1,0,500z"/>
		<path d="M500,1000h500V500C1000,776.1,776.1,1000,500,1000z"/>
	</g>
</g>
</svg>
